<svg xmlns="http://www.w3.org/2000/svg" xmlns:xlink="http://www.w3.org/1999/xlink" width="500" zoomAndPan="magnify" viewBox="0 0 375 374.999991" height="500" preserveAspectRatio="xMidYMid meet" version="1.0"><defs><clipPath id="ea9a42cf6c"><path d="M 112 166 L 299 166 L 299 334 L 112 334 Z M 112 166 " clip-rule="nonzero"/></clipPath><clipPath id="f7e852192e"><path d="M 140.785156 166.566406 L 298.6875 301.308594 L 270.804688 333.984375 L 112.902344 199.242188 Z M 140.785156 166.566406 " clip-rule="nonzero"/></clipPath><clipPath id="8ce110efb6"><path d="M 0.800781 0.558594 L 186.800781 0.558594 L 186.800781 168 L 0.800781 168 Z M 0.800781 0.558594 " clip-rule="nonzero"/></clipPath><clipPath id="80ef24ecd6"><path d="M 28.785156 0.566406 L 186.6875 135.308594 L 158.804688 167.984375 L 0.902344 33.242188 Z M 28.785156 0.566406 " clip-rule="nonzero"/></clipPath><clipPath id="fb5bce3ff2"><rect x="0" width="187" y="0" height="168"/></clipPath><clipPath id="1c6fa8618f"><path d="M 57.964844 169.265625 L 165.914062 169.265625 L 165.914062 207.019531 L 57.964844 207.019531 Z M 57.964844 169.265625 " clip-rule="nonzero"/></clipPath><clipPath id="5bda654dd3"><path d="M 75.214844 169.265625 L 148.558594 169.265625 C 158.085938 169.265625 165.808594 176.988281 165.808594 186.515625 L 165.808594 189.769531 C 165.808594 199.296875 158.085938 207.019531 148.558594 207.019531 L 75.214844 207.019531 C 65.6875 207.019531 57.964844 199.296875 57.964844 189.769531 L 57.964844 186.515625 C 57.964844 176.988281 65.6875 169.265625 75.214844 169.265625 Z M 75.214844 169.265625 " clip-rule="nonzero"/></clipPath><clipPath id="b125d3fa75"><path d="M 0.964844 0.265625 L 108.839844 0.265625 L 108.839844 38.019531 L 0.964844 38.019531 Z M 0.964844 0.265625 " clip-rule="nonzero"/></clipPath><clipPath id="3a2cda6012"><path d="M 18.214844 0.265625 L 91.558594 0.265625 C 101.085938 0.265625 108.808594 7.988281 108.808594 17.515625 L 108.808594 20.769531 C 108.808594 30.296875 101.085938 38.019531 91.558594 38.019531 L 18.214844 38.019531 C 8.6875 38.019531 0.964844 30.296875 0.964844 20.769531 L 0.964844 17.515625 C 0.964844 7.988281 8.6875 0.265625 18.214844 0.265625 Z M 18.214844 0.265625 " clip-rule="nonzero"/></clipPath><clipPath id="cbf2fe1f79"><rect x="0" width="109" y="0" height="39"/></clipPath><clipPath id="080f698438"><path d="M 39.042969 11.410156 L 173.160156 11.410156 L 173.160156 145.527344 L 39.042969 145.527344 Z M 39.042969 11.410156 " clip-rule="nonzero"/></clipPath><clipPath id="bc807e3199"><path d="M 106.101562 11.410156 C 69.066406 11.410156 39.042969 41.433594 39.042969 78.46875 C 39.042969 115.503906 69.066406 145.527344 106.101562 145.527344 C 143.136719 145.527344 173.160156 115.503906 173.160156 78.46875 C 173.160156 41.433594 143.136719 11.410156 106.101562 11.410156 Z M 106.101562 11.410156 " clip-rule="nonzero"/></clipPath><clipPath id="665373a2c1"><path d="M 0.0429688 0.410156 L 134.160156 0.410156 L 134.160156 134.527344 L 0.0429688 134.527344 Z M 0.0429688 0.410156 " clip-rule="nonzero"/></clipPath><clipPath id="2f17ccc7c5"><path d="M 67.101562 0.410156 C 30.066406 0.410156 0.0429688 30.433594 0.0429688 67.46875 C 0.0429688 104.503906 30.066406 134.527344 67.101562 134.527344 C 104.136719 134.527344 134.160156 104.503906 134.160156 67.46875 C 134.160156 30.433594 104.136719 0.410156 67.101562 0.410156 Z M 67.101562 0.410156 " clip-rule="nonzero"/></clipPath><clipPath id="d83b1b13cf"><rect x="0" width="135" y="0" height="135"/></clipPath><clipPath id="4bc5a1fca2"><path d="M 39.042969 232.90625 L 173.160156 232.90625 L 173.160156 367.027344 L 39.042969 367.027344 Z M 39.042969 232.90625 " clip-rule="nonzero"/></clipPath><clipPath id="ea35b8bd44"><path d="M 106.101562 232.90625 C 69.066406 232.90625 39.042969 262.929688 39.042969 299.96875 C 39.042969 337.003906 69.066406 367.027344 106.101562 367.027344 C 143.136719 367.027344 173.160156 337.003906 173.160156 299.96875 C 173.160156 262.929688 143.136719 232.90625 106.101562 232.90625 Z M 106.101562 232.90625 " clip-rule="nonzero"/></clipPath><clipPath id="d1e2fc9fa4"><path d="M 0.0429688 0.90625 L 134.160156 0.90625 L 134.160156 135.027344 L 0.0429688 135.027344 Z M 0.0429688 0.90625 " clip-rule="nonzero"/></clipPath><clipPath id="db520f8074"><path d="M 67.101562 0.90625 C 30.066406 0.90625 0.0429688 30.929688 0.0429688 67.96875 C 0.0429688 105.003906 30.066406 135.027344 67.101562 135.027344 C 104.136719 135.027344 134.160156 105.003906 134.160156 67.96875 C 134.160156 30.929688 104.136719 0.90625 67.101562 0.90625 Z M 67.101562 0.90625 " clip-rule="nonzero"/></clipPath><clipPath id="3d0ef9f485"><rect x="0" width="135" y="0" height="136"/></clipPath><clipPath id="8f7169ca33"><path d="M 236.464844 11.410156 L 338.726562 11.410156 L 338.726562 113.671875 L 236.464844 113.671875 Z M 236.464844 11.410156 " clip-rule="nonzero"/></clipPath><clipPath id="4a52ea66dc"><path d="M 287.59375 11.410156 C 259.355469 11.410156 236.464844 34.300781 236.464844 62.542969 C 236.464844 90.78125 259.355469 113.671875 287.59375 113.671875 C 315.835938 113.671875 338.726562 90.78125 338.726562 62.542969 C 338.726562 34.300781 315.835938 11.410156 287.59375 11.410156 Z M 287.59375 11.410156 " clip-rule="nonzero"/></clipPath><clipPath id="2754878762"><path d="M 0.464844 0.410156 L 102.726562 0.410156 L 102.726562 102.671875 L 0.464844 102.671875 Z M 0.464844 0.410156 " clip-rule="nonzero"/></clipPath><clipPath id="e9d511e37f"><path d="M 51.59375 0.410156 C 23.355469 0.410156 0.464844 23.300781 0.464844 51.542969 C 0.464844 79.78125 23.355469 102.671875 51.59375 102.671875 C 79.835938 102.671875 102.726562 79.78125 102.726562 51.542969 C 102.726562 23.300781 79.835938 0.410156 51.59375 0.410156 Z M 51.59375 0.410156 " clip-rule="nonzero"/></clipPath><clipPath id="636c944a94"><rect x="0" width="103" y="0" height="103"/></clipPath><clipPath id="39835567e9"><path d="M 236.464844 264.839844 L 338.726562 264.839844 L 338.726562 367.105469 L 236.464844 367.105469 Z M 236.464844 264.839844 " clip-rule="nonzero"/></clipPath><clipPath id="458426b17f"><path d="M 287.59375 264.839844 C 259.355469 264.839844 236.464844 287.734375 236.464844 315.972656 C 236.464844 344.214844 259.355469 367.105469 287.59375 367.105469 C 315.835938 367.105469 338.726562 344.214844 338.726562 315.972656 C 338.726562 287.734375 315.835938 264.839844 287.59375 264.839844 Z M 287.59375 264.839844 " clip-rule="nonzero"/></clipPath><clipPath id="8f9a4a084c"><path d="M 0.464844 0.839844 L 102.726562 0.839844 L 102.726562 103.105469 L 0.464844 103.105469 Z M 0.464844 0.839844 " clip-rule="nonzero"/></clipPath><clipPath id="7303cae531"><path d="M 51.59375 0.839844 C 23.355469 0.839844 0.464844 23.734375 0.464844 51.972656 C 0.464844 80.214844 23.355469 103.105469 51.59375 103.105469 C 79.835938 103.105469 102.726562 80.214844 102.726562 51.972656 C 102.726562 23.734375 79.835938 0.839844 51.59375 0.839844 Z M 51.59375 0.839844 " clip-rule="nonzero"/></clipPath><clipPath id="9f567aabeb"><rect x="0" width="103" y="0" height="104"/></clipPath><clipPath id="942fc91418"><path d="M 112 43 L 299 43 L 299 210 L 112 210 Z M 112 43 " clip-rule="nonzero"/></clipPath><clipPath id="8f596ed198"><path d="M 112.328125 176.855469 L 270.996094 43.011719 L 298.695312 75.847656 L 140.023438 209.691406 Z M 112.328125 176.855469 " clip-rule="nonzero"/></clipPath><clipPath id="25f22cf352"><path d="M 0.320312 0 L 186.800781 0 L 186.800781 166.761719 L 0.320312 166.761719 Z M 0.320312 0 " clip-rule="nonzero"/></clipPath><clipPath id="1d2df3b115"><path d="M 0.328125 133.855469 L 158.996094 0.0117188 L 186.695312 32.847656 L 28.023438 166.691406 Z M 0.328125 133.855469 " clip-rule="nonzero"/></clipPath><clipPath id="4d58752bb2"><rect x="0" width="187" y="0" height="167"/></clipPath><clipPath id="449c52fddd"><path d="M 113 55 L 285 55 L 285 209 L 113 209 Z M 113 55 " clip-rule="nonzero"/></clipPath><clipPath id="22ebb51144"><path d="M 106.101562 182.933594 L 264.21875 48.203125 L 292.082031 80.902344 L 133.960938 215.628906 Z M 106.101562 182.933594 " clip-rule="nonzero"/></clipPath><clipPath id="747d022faa"><path d="M 119.234375 171.746094 L 250.972656 59.492188 C 258.226562 53.3125 269.113281 54.183594 275.292969 61.433594 L 280.777344 67.871094 C 286.957031 75.121094 286.085938 86.007812 278.835938 92.1875 L 147.09375 204.441406 C 139.839844 210.621094 128.953125 209.75 122.773438 202.5 L 117.289062 196.0625 C 111.113281 188.8125 111.980469 177.925781 119.234375 171.746094 Z M 119.234375 171.746094 " clip-rule="nonzero"/></clipPath><clipPath id="23f0041cb2"><path d="M 0 0 L 172 0 L 172 154 L 0 154 Z M 0 0 " clip-rule="nonzero"/></clipPath><clipPath id="4b45149ba9"><path d="M -6.898438 127.933594 L 151.21875 -6.796875 L 179.082031 25.902344 L 20.960938 160.628906 Z M -6.898438 127.933594 " clip-rule="nonzero"/></clipPath><clipPath id="18de9b002d"><path d="M 6.234375 116.746094 L 137.972656 4.492188 C 145.226562 -1.6875 156.113281 -0.816406 162.292969 6.433594 L 167.777344 12.871094 C 173.957031 20.121094 173.085938 31.007812 165.835938 37.1875 L 34.09375 149.441406 C 26.839844 155.621094 15.953125 154.75 9.773438 147.5 L 4.289062 141.0625 C -1.886719 133.8125 -1.019531 122.925781 6.234375 116.746094 Z M 6.234375 116.746094 " clip-rule="nonzero"/></clipPath><clipPath id="fa38d784a4"><rect x="0" width="172" y="0" height="154"/></clipPath><clipPath id="bcd6ef0474"><path d="M 113 168 L 287 168 L 287 320 L 113 320 Z M 113 168 " clip-rule="nonzero"/></clipPath><clipPath id="8eea4ec530"><path d="M 133.574219 161.113281 L 293.257812 293.984375 L 265.78125 327.003906 L 106.097656 194.136719 Z M 133.574219 161.113281 " clip-rule="nonzero"/></clipPath><clipPath id="8b8e5ad40c"><path d="M 146.832031 172.148438 L 279.878906 282.851562 C 287.203125 288.945312 288.199219 299.824219 282.105469 307.148438 L 276.699219 313.648438 C 270.605469 320.96875 259.726562 321.96875 252.402344 315.875 L 119.359375 205.167969 C 112.035156 199.074219 111.039062 188.199219 117.132812 180.875 L 122.539062 174.375 C 128.632812 167.050781 139.511719 166.054688 146.832031 172.148438 Z M 146.832031 172.148438 " clip-rule="nonzero"/></clipPath><clipPath id="6d4dbac812"><path d="M 0 0 L 174 0 L 174 152 L 0 152 Z M 0 0 " clip-rule="nonzero"/></clipPath><clipPath id="2cbd768371"><path d="M 20.574219 -6.886719 L 180.257812 125.984375 L 152.78125 159.003906 L -6.902344 26.136719 Z M 20.574219 -6.886719 " clip-rule="nonzero"/></clipPath><clipPath id="d72e598f3e"><path d="M 33.832031 4.148438 L 166.878906 114.851562 C 174.203125 120.945312 175.199219 131.824219 169.105469 139.148438 L 163.699219 145.648438 C 157.605469 152.96875 146.726562 153.96875 139.402344 147.875 L 6.359375 37.167969 C -0.964844 31.074219 -1.960938 20.199219 4.132812 12.875 L 9.539062 6.375 C 15.632812 -0.949219 26.511719 -1.945312 33.832031 4.148438 Z M 33.832031 4.148438 " clip-rule="nonzero"/></clipPath><clipPath id="fff4176c6a"><rect x="0" width="174" y="0" height="152"/></clipPath></defs><g clip-path="url(#ea9a42cf6c)"><g clip-path="url(#f7e852192e)"><g transform="matrix(1, 0, 0, 1, 112, 166)"><g clip-path="url(#fb5bce3ff2)"><g clip-path="url(#8ce110efb6)"><g clip-path="url(#80ef24ecd6)"><path fill="#3e91ff" d="M 28.785156 0.566406 L 186.675781 135.296875 L 158.792969 167.972656 L 0.902344 33.242188 Z M 28.785156 0.566406 " fill-opacity="1" fill-rule="nonzero"/></g></g></g></g></g></g><g clip-path="url(#1c6fa8618f)"><g clip-path="url(#5bda654dd3)"><g transform="matrix(1, 0, 0, 1, 57, 169)"><g clip-path="url(#cbf2fe1f79)"><g clip-path="url(#b125d3fa75)"><g clip-path="url(#3a2cda6012)"><path fill="#3e91ff" d="M 0.964844 0.265625 L 108.765625 0.265625 L 108.765625 38.019531 L 0.964844 38.019531 Z M 0.964844 0.265625 " fill-opacity="1" fill-rule="nonzero"/></g></g></g></g></g></g><g clip-path="url(#080f698438)"><g clip-path="url(#bc807e3199)"><g transform="matrix(1, 0, 0, 1, 39, 11)"><g clip-path="url(#d83b1b13cf)"><g clip-path="url(#665373a2c1)"><g clip-path="url(#2f17ccc7c5)"><path fill="#3e91ff" d="M 0.0429688 0.410156 L 134.160156 0.410156 L 134.160156 134.527344 L 0.0429688 134.527344 Z M 0.0429688 0.410156 " fill-opacity="1" fill-rule="nonzero"/></g></g></g></g></g></g><g clip-path="url(#4bc5a1fca2)"><g clip-path="url(#ea35b8bd44)"><g transform="matrix(1, 0, 0, 1, 39, 232)"><g clip-path="url(#3d0ef9f485)"><g clip-path="url(#d1e2fc9fa4)"><g clip-path="url(#db520f8074)"><path fill="#3e91ff" d="M 0.0429688 0.90625 L 134.160156 0.90625 L 134.160156 135.027344 L 0.0429688 135.027344 Z M 0.0429688 0.90625 " fill-opacity="1" fill-rule="nonzero"/></g></g></g></g></g></g><g clip-path="url(#8f7169ca33)"><g clip-path="url(#4a52ea66dc)"><g transform="matrix(1, 0, 0, 1, 236, 11)"><g clip-path="url(#636c944a94)"><g clip-path="url(#2754878762)"><g clip-path="url(#e9d511e37f)"><path fill="#3e91ff" d="M 0.464844 0.410156 L 102.726562 0.410156 L 102.726562 102.671875 L 0.464844 102.671875 Z M 0.464844 0.410156 " fill-opacity="1" fill-rule="nonzero"/></g></g></g></g></g></g><g clip-path="url(#39835567e9)"><g clip-path="url(#458426b17f)"><g transform="matrix(1, 0, 0, 1, 236, 264)"><g clip-path="url(#9f567aabeb)"><g clip-path="url(#8f9a4a084c)"><g clip-path="url(#7303cae531)"><path fill="#3e91ff" d="M 0.464844 0.839844 L 102.726562 0.839844 L 102.726562 103.105469 L 0.464844 103.105469 Z M 0.464844 0.839844 " fill-opacity="1" fill-rule="nonzero"/></g></g></g></g></g></g><g clip-path="url(#942fc91418)"><g clip-path="url(#8f596ed198)"><g transform="matrix(1, 0, 0, 1, 112, 43)"><g clip-path="url(#4d58752bb2)"><g clip-path="url(#25f22cf352)"><g clip-path="url(#1d2df3b115)"><path fill="#3e91ff" d="M 0.328125 133.855469 L 158.984375 0.0234375 L 186.683594 32.855469 L 28.023438 166.691406 Z M 0.328125 133.855469 " fill-opacity="1" fill-rule="nonzero"/></g></g></g></g></g></g><g clip-path="url(#449c52fddd)"><g clip-path="url(#22ebb51144)"><g clip-path="url(#747d022faa)"><g transform="matrix(1, 0, 0, 1, 113, 55)"><g clip-path="url(#fa38d784a4)"><g clip-path="url(#23f0041cb2)"><g clip-path="url(#4b45149ba9)"><g clip-path="url(#18de9b002d)"><path fill="#3e91ff" d="M -6.898438 127.933594 L 151.09375 -6.6875 L 178.953125 26.011719 L 20.960938 160.628906 Z M -6.898438 127.933594 " fill-opacity="1" fill-rule="nonzero"/></g></g></g></g></g></g></g></g><g clip-path="url(#bcd6ef0474)"><g clip-path="url(#8eea4ec530)"><g clip-path="url(#8b8e5ad40c)"><g transform="matrix(1, 0, 0, 1, 113, 168)"><g clip-path="url(#fff4176c6a)"><g clip-path="url(#6d4dbac812)"><g clip-path="url(#2cbd768371)"><g clip-path="url(#d72e598f3e)"><path fill="#3e91ff" d="M 20.574219 -6.886719 L 180.128906 125.875 L 152.652344 158.898438 L -6.902344 26.136719 Z M 20.574219 -6.886719 " fill-opacity="1" fill-rule="nonzero"/></g></g></g></g></g></g></g></g></svg>